<mxfile host="65bd71144e" modified="2020-10-25T09:33:30.037Z" agent="5.0 (Macintosh; Intel Mac OS X 10_15_2) AppleWebKit/537.36 (KHTML, like Gecko) Code/1.50.1 Chrome/83.0.4103.122 Electron/9.2.1 Safari/537.36" etag="9a5uWAhbkydgTM8D2f3o" version="13.6.5">
    <diagram id="OSGUjozy-c6nUxfPTaJ9" name="Page-1">
        <mxGraphModel dx="773" dy="720" grid="1" gridSize="10" guides="1" tooltips="1" connect="1" arrows="1" fold="1" page="1" pageScale="1" pageWidth="827" pageHeight="1169" math="0" shadow="0">
            <root>
                <mxCell id="0"/>
                <mxCell id="1" parent="0"/>
                <mxCell id="20" style="edgeStyle=orthogonalEdgeStyle;rounded=0;orthogonalLoop=1;jettySize=auto;html=1;exitX=0.5;exitY=1;exitDx=0;exitDy=0;entryX=0.5;entryY=0;entryDx=0;entryDy=0;" parent="1" source="2" target="14" edge="1">
                    <mxGeometry relative="1" as="geometry"/>
                </mxCell>
                <mxCell id="2" value="&lt;h2&gt;rbp&lt;/h2&gt;" style="rounded=0;whiteSpace=wrap;html=1;" parent="1" vertex="1">
                    <mxGeometry x="40" y="40" width="80" height="40" as="geometry"/>
                </mxCell>
                <mxCell id="14" value="&lt;h2&gt;rbp&lt;/h2&gt;" style="rounded=0;whiteSpace=wrap;html=1;" parent="1" vertex="1">
                    <mxGeometry x="40" y="680" width="80" height="40" as="geometry"/>
                </mxCell>
                <mxCell id="21" style="edgeStyle=orthogonalEdgeStyle;rounded=0;orthogonalLoop=1;jettySize=auto;html=1;exitX=0.5;exitY=1;exitDx=0;exitDy=0;entryX=0.5;entryY=0;entryDx=0;entryDy=0;" parent="1" source="22" target="23" edge="1">
                    <mxGeometry relative="1" as="geometry"/>
                </mxCell>
                <mxCell id="67" style="edgeStyle=orthogonalEdgeStyle;rounded=0;orthogonalLoop=1;jettySize=auto;html=1;exitX=0.5;exitY=1;exitDx=0;exitDy=0;entryX=0;entryY=0.25;entryDx=0;entryDy=0;startArrow=none;startFill=0;endArrow=classicThin;endFill=1;" parent="1" source="22" target="40" edge="1">
                    <mxGeometry relative="1" as="geometry"/>
                </mxCell>
                <mxCell id="22" value="&lt;h2&gt;rax&lt;/h2&gt;" style="rounded=0;whiteSpace=wrap;html=1;" parent="1" vertex="1">
                    <mxGeometry x="160" y="40" width="80" height="40" as="geometry"/>
                </mxCell>
                <mxCell id="23" value="&lt;h2&gt;rax&lt;/h2&gt;" style="rounded=0;whiteSpace=wrap;html=1;" parent="1" vertex="1">
                    <mxGeometry x="160" y="680" width="80" height="40" as="geometry"/>
                </mxCell>
                <mxCell id="24" style="edgeStyle=orthogonalEdgeStyle;rounded=0;orthogonalLoop=1;jettySize=auto;html=1;exitX=0.5;exitY=1;exitDx=0;exitDy=0;entryX=0.5;entryY=0;entryDx=0;entryDy=0;" parent="1" source="25" target="26" edge="1">
                    <mxGeometry relative="1" as="geometry"/>
                </mxCell>
                <mxCell id="38" style="edgeStyle=orthogonalEdgeStyle;rounded=0;orthogonalLoop=1;jettySize=auto;html=1;startArrow=none;startFill=0;endArrow=classicThin;endFill=1;entryX=0;entryY=0.25;entryDx=0;entryDy=0;" parent="1" target="36" edge="1">
                    <mxGeometry relative="1" as="geometry">
                        <mxPoint x="390" y="60" as="targetPoint"/>
                        <mxPoint x="80" y="130" as="sourcePoint"/>
                    </mxGeometry>
                </mxCell>
                <mxCell id="61" style="edgeStyle=orthogonalEdgeStyle;rounded=0;orthogonalLoop=1;jettySize=auto;html=1;exitX=0.5;exitY=1;exitDx=0;exitDy=0;entryX=0;entryY=0.25;entryDx=0;entryDy=0;startArrow=none;startFill=0;endArrow=classicThin;endFill=1;" parent="1" source="25" target="59" edge="1">
                    <mxGeometry relative="1" as="geometry"/>
                </mxCell>
                <mxCell id="25" value="&lt;h2&gt;rbx&lt;/h2&gt;" style="rounded=0;whiteSpace=wrap;html=1;" parent="1" vertex="1">
                    <mxGeometry x="280" y="40" width="80" height="40" as="geometry"/>
                </mxCell>
                <mxCell id="26" value="&lt;h2&gt;rbx&lt;/h2&gt;" style="rounded=0;whiteSpace=wrap;html=1;" parent="1" vertex="1">
                    <mxGeometry x="280" y="680" width="80" height="40" as="geometry"/>
                </mxCell>
                <mxCell id="27" style="edgeStyle=orthogonalEdgeStyle;rounded=0;orthogonalLoop=1;jettySize=auto;html=1;exitX=0.5;exitY=1;exitDx=0;exitDy=0;entryX=0;entryY=0.25;entryDx=0;entryDy=0;" parent="1" source="28" target="56" edge="1">
                    <mxGeometry relative="1" as="geometry"/>
                </mxCell>
                <mxCell id="28" value="&lt;h2&gt;rcx&lt;/h2&gt;" style="rounded=0;whiteSpace=wrap;html=1;" parent="1" vertex="1">
                    <mxGeometry x="400" y="40" width="80" height="40" as="geometry"/>
                </mxCell>
                <mxCell id="29" value="&lt;h2&gt;rcx&lt;/h2&gt;" style="rounded=0;whiteSpace=wrap;html=1;" parent="1" vertex="1">
                    <mxGeometry x="400" y="680" width="80" height="40" as="geometry"/>
                </mxCell>
                <mxCell id="30" style="edgeStyle=orthogonalEdgeStyle;rounded=0;orthogonalLoop=1;jettySize=auto;html=1;exitX=0;exitY=0.75;exitDx=0;exitDy=0;entryX=0.5;entryY=0;entryDx=0;entryDy=0;" parent="1" source="36" target="35" edge="1">
                    <mxGeometry relative="1" as="geometry"/>
                </mxCell>
                <mxCell id="49" style="edgeStyle=orthogonalEdgeStyle;rounded=0;orthogonalLoop=1;jettySize=auto;html=1;entryX=0;entryY=0.25;entryDx=0;entryDy=0;startArrow=none;startFill=0;endArrow=classicThin;endFill=1;" parent="1" target="45" edge="1">
                    <mxGeometry relative="1" as="geometry">
                        <mxPoint x="680" y="290" as="sourcePoint"/>
                    </mxGeometry>
                </mxCell>
                <mxCell id="31" value="&lt;h2&gt;xmm0&lt;/h2&gt;" style="rounded=0;whiteSpace=wrap;html=1;" parent="1" vertex="1">
                    <mxGeometry x="520" y="40" width="80" height="40" as="geometry"/>
                </mxCell>
                <mxCell id="32" value="&lt;h2&gt;xmm0&lt;/h2&gt;" style="rounded=0;whiteSpace=wrap;html=1;" parent="1" vertex="1">
                    <mxGeometry x="520" y="680" width="80" height="40" as="geometry"/>
                </mxCell>
                <mxCell id="54" style="edgeStyle=orthogonalEdgeStyle;rounded=0;orthogonalLoop=1;jettySize=auto;html=1;entryX=0;entryY=0.5;entryDx=0;entryDy=0;startArrow=none;startFill=0;endArrow=classicThin;endFill=1;" parent="1" target="52" edge="1">
                    <mxGeometry relative="1" as="geometry">
                        <mxPoint x="680" y="380" as="sourcePoint"/>
                    </mxGeometry>
                </mxCell>
                <mxCell id="34" value="&lt;h2&gt;xmm1&lt;/h2&gt;" style="rounded=0;whiteSpace=wrap;html=1;" parent="1" vertex="1">
                    <mxGeometry x="640" y="40" width="80" height="40" as="geometry"/>
                </mxCell>
                <mxCell id="35" value="&lt;h2&gt;xmm1&lt;/h2&gt;" style="rounded=0;whiteSpace=wrap;html=1;" parent="1" vertex="1">
                    <mxGeometry x="640" y="680" width="80" height="40" as="geometry"/>
                </mxCell>
                <mxCell id="36" value="&lt;h2&gt;load&lt;/h2&gt;" style="rounded=0;whiteSpace=wrap;html=1;" parent="1" vertex="1">
                    <mxGeometry x="760" y="120" width="80" height="40" as="geometry"/>
                </mxCell>
                <mxCell id="39" style="edgeStyle=orthogonalEdgeStyle;rounded=0;orthogonalLoop=1;jettySize=auto;html=1;startArrow=none;startFill=0;endArrow=classicThin;endFill=1;entryX=0;entryY=0.25;entryDx=0;entryDy=0;" parent="1" edge="1">
                    <mxGeometry relative="1" as="geometry">
                        <mxPoint x="760" y="139.5" as="targetPoint"/>
                        <mxPoint x="440" y="140" as="sourcePoint"/>
                        <Array as="points">
                            <mxPoint x="480" y="140"/>
                        </Array>
                    </mxGeometry>
                </mxCell>
                <mxCell id="47" style="edgeStyle=orthogonalEdgeStyle;rounded=0;orthogonalLoop=1;jettySize=auto;html=1;exitX=1;exitY=0.75;exitDx=0;exitDy=0;entryX=1;entryY=0.25;entryDx=0;entryDy=0;startArrow=none;startFill=0;endArrow=classicThin;endFill=1;" parent="1" source="40" target="45" edge="1">
                    <mxGeometry relative="1" as="geometry"/>
                </mxCell>
                <mxCell id="40" value="&lt;h2&gt;load&lt;/h2&gt;" style="rounded=0;whiteSpace=wrap;html=1;" parent="1" vertex="1">
                    <mxGeometry x="760" y="200" width="80" height="40" as="geometry"/>
                </mxCell>
                <mxCell id="41" value="&lt;h3&gt;&lt;font style=&quot;font-size: 15px&quot;&gt;vmovad 0(%rbp,%rcx,8),%xmm1&lt;/font&gt;&lt;/h3&gt;" style="text;html=1;strokeColor=none;fillColor=none;align=left;verticalAlign=middle;whiteSpace=wrap;rounded=0;" parent="1" vertex="1">
                    <mxGeometry x="880" y="120" width="320" height="40" as="geometry"/>
                </mxCell>
                <mxCell id="42" value="&lt;h3&gt;&lt;font style=&quot;font-size: 15px&quot;&gt;vmulsd (%rax,%rcx,8),%xmm1,%xmm1&lt;/font&gt;&lt;/h3&gt;" style="text;html=1;strokeColor=none;fillColor=none;align=left;verticalAlign=middle;whiteSpace=wrap;rounded=0;" parent="1" vertex="1">
                    <mxGeometry x="880" y="200" width="320" height="40" as="geometry"/>
                </mxCell>
                <mxCell id="44" style="edgeStyle=orthogonalEdgeStyle;rounded=0;orthogonalLoop=1;jettySize=auto;html=1;startArrow=none;startFill=0;endArrow=classicThin;endFill=1;entryX=0;entryY=0.25;entryDx=0;entryDy=0;" parent="1" edge="1">
                    <mxGeometry relative="1" as="geometry">
                        <mxPoint x="760" y="219.5" as="targetPoint"/>
                        <mxPoint x="440" y="220" as="sourcePoint"/>
                        <Array as="points">
                            <mxPoint x="480" y="220"/>
                        </Array>
                    </mxGeometry>
                </mxCell>
                <mxCell id="50" style="edgeStyle=orthogonalEdgeStyle;rounded=0;orthogonalLoop=1;jettySize=auto;html=1;exitX=0;exitY=0.75;exitDx=0;exitDy=0;entryX=0;entryY=0.25;entryDx=0;entryDy=0;startArrow=none;startFill=0;endArrow=classicThin;endFill=1;" parent="1" source="45" target="52" edge="1">
                    <mxGeometry relative="1" as="geometry">
                        <Array as="points">
                            <mxPoint x="560" y="310"/>
                            <mxPoint x="560" y="370"/>
                        </Array>
                    </mxGeometry>
                </mxCell>
                <mxCell id="45" value="&lt;h2&gt;mul&lt;/h2&gt;" style="rounded=0;whiteSpace=wrap;html=1;" parent="1" vertex="1">
                    <mxGeometry x="760" y="280" width="80" height="40" as="geometry"/>
                </mxCell>
                <mxCell id="51" value="&lt;h3&gt;&lt;font style=&quot;font-size: 15px&quot;&gt;vaddsd %xmm1,%xmm0,%xmm0&lt;/font&gt;&lt;/h3&gt;" style="text;html=1;strokeColor=none;fillColor=none;align=left;verticalAlign=middle;whiteSpace=wrap;rounded=0;" parent="1" vertex="1">
                    <mxGeometry x="880" y="360" width="320" height="40" as="geometry"/>
                </mxCell>
                <mxCell id="55" style="edgeStyle=orthogonalEdgeStyle;rounded=0;orthogonalLoop=1;jettySize=auto;html=1;exitX=0;exitY=0.75;exitDx=0;exitDy=0;entryX=0.5;entryY=0;entryDx=0;entryDy=0;startArrow=none;startFill=0;endArrow=classicThin;endFill=1;" parent="1" source="52" target="32" edge="1">
                    <mxGeometry relative="1" as="geometry"/>
                </mxCell>
                <mxCell id="52" value="&lt;h2&gt;add&lt;/h2&gt;" style="rounded=0;whiteSpace=wrap;html=1;" parent="1" vertex="1">
                    <mxGeometry x="760" y="360" width="80" height="40" as="geometry"/>
                </mxCell>
                <mxCell id="58" style="edgeStyle=orthogonalEdgeStyle;rounded=0;orthogonalLoop=1;jettySize=auto;html=1;exitX=0;exitY=0.75;exitDx=0;exitDy=0;entryX=0.5;entryY=0;entryDx=0;entryDy=0;startArrow=none;startFill=0;endArrow=classicThin;endFill=1;" parent="1" source="56" target="29" edge="1">
                    <mxGeometry relative="1" as="geometry"/>
                </mxCell>
                <mxCell id="63" style="edgeStyle=orthogonalEdgeStyle;rounded=0;orthogonalLoop=1;jettySize=auto;html=1;exitX=0;exitY=0.75;exitDx=0;exitDy=0;entryX=0;entryY=0.5;entryDx=0;entryDy=0;startArrow=none;startFill=0;endArrow=classicThin;endFill=1;" parent="1" source="56" target="59" edge="1">
                    <mxGeometry relative="1" as="geometry">
                        <Array as="points">
                            <mxPoint x="440" y="470"/>
                            <mxPoint x="440" y="540"/>
                        </Array>
                    </mxGeometry>
                </mxCell>
                <mxCell id="56" value="&lt;h2&gt;add&lt;/h2&gt;" style="rounded=0;whiteSpace=wrap;html=1;" parent="1" vertex="1">
                    <mxGeometry x="760" y="440" width="80" height="40" as="geometry"/>
                </mxCell>
                <mxCell id="57" value="&lt;h3&gt;&lt;font style=&quot;font-size: 15px&quot;&gt;addq $1, %rcx&lt;/font&gt;&lt;/h3&gt;" style="text;html=1;strokeColor=none;fillColor=none;align=left;verticalAlign=middle;whiteSpace=wrap;rounded=0;" parent="1" vertex="1">
                    <mxGeometry x="880" y="440" width="320" height="40" as="geometry"/>
                </mxCell>
                <mxCell id="66" style="edgeStyle=orthogonalEdgeStyle;rounded=0;orthogonalLoop=1;jettySize=auto;html=1;exitX=1;exitY=0.75;exitDx=0;exitDy=0;entryX=1;entryY=0.25;entryDx=0;entryDy=0;startArrow=none;startFill=0;endArrow=classicThin;endFill=1;" parent="1" source="59" target="64" edge="1">
                    <mxGeometry relative="1" as="geometry"/>
                </mxCell>
                <mxCell id="59" value="&lt;h2&gt;cmp&lt;/h2&gt;" style="rounded=0;whiteSpace=wrap;html=1;" parent="1" vertex="1">
                    <mxGeometry x="760" y="520" width="80" height="40" as="geometry"/>
                </mxCell>
                <mxCell id="60" value="&lt;h3&gt;&lt;font style=&quot;font-size: 15px&quot;&gt;cmpq %rbx, %rcx&lt;/font&gt;&lt;/h3&gt;" style="text;html=1;strokeColor=none;fillColor=none;align=left;verticalAlign=middle;whiteSpace=wrap;rounded=0;" parent="1" vertex="1">
                    <mxGeometry x="880" y="520" width="320" height="40" as="geometry"/>
                </mxCell>
                <mxCell id="64" value="&lt;h2&gt;jne&lt;/h2&gt;" style="rounded=0;whiteSpace=wrap;html=1;" parent="1" vertex="1">
                    <mxGeometry x="760" y="600" width="80" height="40" as="geometry"/>
                </mxCell>
                <mxCell id="65" value="&lt;h3&gt;&lt;font style=&quot;font-size: 15px&quot;&gt;jne .L15&lt;/font&gt;&lt;/h3&gt;" style="text;html=1;strokeColor=none;fillColor=none;align=left;verticalAlign=middle;whiteSpace=wrap;rounded=0;" parent="1" vertex="1">
                    <mxGeometry x="880" y="600" width="320" height="40" as="geometry"/>
                </mxCell>
            </root>
        </mxGraphModel>
    </diagram>
</mxfile>